<svg xmlns="http://www.w3.org/2000/svg" width="731" height="1163.129" viewBox="0 0 731 1163.129">
  <defs>
    <style>
      .cls-1 {
        fill: #e3afe5;
      }
    </style>
  </defs>
  <g id="Group_2" data-name="Group 2" transform="translate(-947 19)">
    <rect id="Rectangle_3" data-name="Rectangle 3" class="cls-1" width="731" height="857" rx="19" transform="translate(947 -19)"/>
    <path id="Dripping" class="cls-1" d="M768.18,159.227c-3.039,6.861-10.855,10.935-22.362,11.22-12.483.357-25.075-.572-36.69,4.217-15.2,6.289-26.6,14.722-33.977,25.228-4.885,6.932-11.615,12.507-20.733,17.009-6.3,3.145-12.918,6.146-19.214,9.291-12.7,6.289-19.973,14.579-22.362,25.085-2.714,11.792,3.8,22.512,7.381,33.59,3.148,9.791,6.3,19.582,4.342,29.659-1.845,9.72-12.483,15.437-27.789,15.151-14.872-.214-22.8-5.289-24.1-15.58-.76-6.218.217-12.364,1.085-18.51,1.52-9.934,4.342-19.8.868-29.8-2.714-7.719-11.941-14.722-21.493-15.366-12.7-.929-17.368,5.5-22.036,11.435-5.428,6.932-10.1,14.222-15.523,21.154C509.5,290.87,500.6,295.3,486.055,294.3a271.191,271.191,0,0,1-28.766-3.288c-15.631-2.787-24.858.357-30.177,10.506a37.177,37.177,0,0,0-3.908,15.366A236.692,236.692,0,0,0,433.625,400.5c4.776,15.08,8.9,30.3,7.164,45.954-1.628,14.722-17.477,27.158-37.667,29.087-21.276,2.073-38.644-5.36-47.328-20.368-8.793-15.08-4.016-30.016,1.3-44.882,11.941-33.233,17.477-66.965,15.523-101.055-.868-14.794-3.8-29.516-16.717-42.237-9.444-9.291-28.549-9.148-38.21,0a27.421,27.421,0,0,0-7.382,12.507c-3.365,10.72-.651,21.3,1.194,31.875,2.062,11.506,6.839,22.941,4.559,34.662-1.737,9-8.033,13.65-20.3,15.437-22.579,3.288-34.519-2.787-35.713-18.081-1.194-14.651,4.451-28.8,8.25-43.024,3.039-11.077-.543-21.226-13.026-28.73-15.848-9.505-23.773-20.511-21.819-34.662.326-2.573-.434-5.217-.977-7.79-1.3-5.646-5.428-10.363-11.941-13.936-13.895-7.719-30.394-4.5-35.713,6.932a24.063,24.063,0,0,0-.76,19.725c3.474,8.791,6.079,17.581,6.079,26.657-.109,9.434-9.01,16.509-22.036,16.938-14.763.572-24.424-5.217-25.4-15.366-.651-7.147,1.628-14.151,3.474-21.226,3.148-11.792,6.839-24.228-9.118-33.375A145.138,145.138,0,0,1,99.5,184.526C91.58,175.45,80.29,169.589,62.6,170.3c-12.7.5-21.168-4.645-23.447-11.935-3.365-11.006,7.056-18.582,26.269-18.582q169.5-.107,339.006,0s247.714.071,339.006.071c5.536,0,10.747.357,15.523,2.5C767.2,146.219,771,152.937,768.18,159.227Z" transform="translate(908.896 668.244)"/>
  </g>
</svg>
