<svg xmlns="http://www.w3.org/2000/svg" width="155.554" height="131.601" viewBox="0 0 155.554 131.601">
  <defs>
    <style>
      .cls-1 {
        fill: none;
        stroke: #020202;
        stroke-width: 15px;
      }
    </style>
  </defs>
  <g id="twitter-svgrepo-com" transform="translate(7.534 -12.198)">
    <path id="Path_4" data-name="Path 4" class="cls-1" d="M2.708,113.126c5.936-.725,11.955.056,17.891-.919a40.3,40.3,0,0,0,8.416-2.536A98.143,98.143,0,0,1,10.706,94.594a3.373,3.373,0,0,1,2.369-5.685,28.027,28.027,0,0,0,7.023-.558A94.368,94.368,0,0,1,6.247,64.107c-.947-2.4,1.839-4.821,4.1-4.1a22.735,22.735,0,0,0,4.013,1.17,50.86,50.86,0,0,1-2.7-31.073c.53-2.536,3.874-3.149,5.574-1.477,13.321,13.1,30.153,19.4,48.156,22.405C63.794,38.718,72.545,25.62,84.026,21.328c9.531-3.539,22.323-1.114,28.732,6.911,4.292-2.7,10.227-3.6,14.993-4.431,2.508-.418,4.933,2.034,3.456,4.514-1.728,2.9-3.372,5.991-5.183,8.946a70.549,70.549,0,0,1,11.259-2.23c2.731-.362,4.375,3.846,2.286,5.518-4.431,3.539-8.834,7.58-13.544,10.813-.139,31.3-9.28,57.548-37.232,75.355-23.3,14.882-66.605,12.374-86.865-7.886H1.9a2.059,2.059,0,0,1-1.533-1.616,2.235,2.235,0,0,1,.808-3.177A2.382,2.382,0,0,1,2.708,113.126Z"/>
  </g>
</svg>
